<svg width="64" height="49" viewBox="0 0 64 49" fill="none" xmlns="http://www.w3.org/2000/svg">
<path d="M5.44308 43.6461C6.34887 42.4947 8.08353 40.3642 5.65221 39.9875C5.10224 39.9023 4.58852 39.5791 4.04885 39.8237C2.38658 40.577 0.842117 42.2357 0.842117 44.2078C0.842117 47.3577 4.29676 48.0398 6.80633 47.9991C11.0404 47.9303 12.3285 43.805 13.824 40.4633C15.3345 37.0878 17.0125 33.7671 18.5798 30.4157C20.3533 26.6237 23.2619 23.6028 25.1017 19.8455C25.8907 18.2343 26.9209 16.8154 27.9367 15.3443C29.5124 13.0623 30.636 10.7601 31.7631 8.22988C32.6877 6.15394 33.713 4.25823 34.8459 2.29336C35.304 1.49879 35.1318 0.28155 36.0077 1.13102C36.6728 1.776 37.7307 2.19968 38.6258 2.36357C42.5388 3.0801 46.1372 3.83851 50.1669 3.51811C54.2425 3.19406 58.3159 2.61012 62.3277 1.83311C63.6916 1.56895 63.1103 1.88696 62.4671 2.71461C61.3763 4.11843 60.4449 5.60614 59.3998 7.02853C58.0369 8.88346 57.5572 11.1174 56.7508 13.2381C55.8643 15.5692 54.8093 17.7959 53.9623 20.1653C52.3255 24.7445 49.9378 28.9205 46.9834 32.7638C45.2712 34.9912 43.1563 38.8812 39.9503 38.7237C34.9889 38.48 38.3391 28.7136 40.7094 26.8039C41.9853 25.7759 43.3809 26.8826 43.5366 28.2627C43.7505 30.1589 43.1001 32.7574 41.2593 33.6843C39.3173 34.6623 37.8284 34.5449 39.3229 32.0227C40.2271 30.4967 40.7649 32.1762 41.1354 31.4299" stroke="#83ABA3" stroke-width="1.66333" stroke-linecap="round" stroke-linejoin="round"/>
</svg>
