<svg width="147" height="151" viewBox="0 0 147 151" fill="none" xmlns="http://www.w3.org/2000/svg">
<path d="M144.964 129.966C135.466 140.323 125.348 154.839 110.046 146.515C102.775 142.56 99.5263 129.517 101.776 122.265C103.643 116.249 103.805 108.121 111.028 105.836C116.702 104.041 122.86 105.974 125.652 111.541C133.58 127.353 110.863 131.62 101.183 127.161C87.9694 121.075 80.2197 82.6357 94.9341 74.63C107.55 67.7659 110.907 83.7722 101.617 90.5484C88.5493 100.081 79.0932 98.2047 70.3427 82.5342C63.5104 70.2986 70.5462 53.3031 80.2433 45.8069C82.2573 44.25 91.3096 32.1371 92.3832 33.8288C102.977 50.5216 73.7607 64.317 60.8364 58.2411C45.9868 51.2601 31.0414 44.0271 23.6931 29.1723C19.7415 21.1841 15.2231 -5.07788 15.1603 3.83404C15.0817 14.9868 13.9571 30.0467 7.04695 39.5089C4.99075 42.3246 -1.35808 51.4743 4.30923 42.4739C10.1459 33.2046 15.503 25.1759 19.3025 15.4908C20.148 13.3355 18.0131 9.47447 17.4795 7.3453C17.0276 5.5419 23.05 9.17035 23.8094 9.43888C30.3661 11.7574 37.1368 10.6482 43.6745 8.81698C49.5098 7.18251 56.6954 3.20853 60.1116 6.06037" stroke="#83ABA3" stroke-width="4" stroke-linecap="round" stroke-linejoin="round"/>
</svg>
