<svg width="78" height="234" viewBox="0 0 78 234" fill="none" xmlns="http://www.w3.org/2000/svg">
<path d="M75.1929 2.51521C49.5434 3.23458 54.2697 2.26139 33.5179 22.2413C28.7784 26.8045 21.6121 32.3546 19.9881 40.4617C17.5915 52.4254 32.2617 88.6202 41.8663 75.2992C48.0735 66.6902 46.8779 51.9031 37.4354 47.9923C21.9504 41.5788 9.50035 60.541 4.68641 76.9262C-0.613466 94.9655 3.83751 114.7 16.3282 126.745C22.0344 132.247 31.2387 129.756 26.1899 118.07C15.8054 94.0347 3.795 123.192 5.42111 139.16C8.35003 167.921 33.054 205.706 56.1669 199.714C63.3934 197.84 61.0313 193.661 57.9987 190.569C54.9215 187.432 47.1839 175.975 49.2613 180.325C52.893 187.93 57.5004 190.99 62.6473 195.456C69.2859 201.216 55.0465 213.803 50.9214 218.295C48.7559 220.654 45.6094 225.936 45.0237 229.782C43.867 237.377 52.2164 217.533 53.7106 210.074" stroke="#89ACB9" stroke-width="5" stroke-linecap="round" stroke-linejoin="round"/>
</svg>
