<svg width="54" height="44" viewBox="0 0 54 44" fill="none" xmlns="http://www.w3.org/2000/svg">
<path d="M6.06998 29.7955C8.95182 23.0002 7.77151 17.079 7.77151 10.0368C7.77151 8.66689 7.52295 4.49389 8.96259 3.74702C11.233 2.56916 13.3547 1.7832 16.0334 1.7832C17.8144 1.7832 19.6037 1.83451 21.3838 1.7832C23.1642 1.73189 24.8888 1.00765 26.6491 0.792026C29.9244 0.390831 33.331 0.949502 36.5653 0.949502C39.1333 0.949502 41.7899 1.28298 44.26 1.28298C44.6986 1.28298 46.4865 1.49208 46.7745 1.74615C47.6562 2.52372 47.4037 3.77071 48.098 4.45104" stroke="#CEA9B6" stroke-opacity="0.37" stroke-width="1.28667" stroke-linecap="round" stroke-linejoin="round"/>
<path d="M47.9286 5.05314C48.0407 7.05843 48.0827 9.87241 48.9077 11.8318C49.4424 13.1016 49.0161 14.7915 49.1243 16.1439C49.332 18.7399 48.9454 21.2702 48.9454 23.7887C48.9454 27.1673 49.1149 30.5026 49.1149 33.8626C49.1149 36.7466 46.297 36.2638 44.0685 35.8586C42.1434 35.5086 39.5599 36.2104 37.5534 36.2352C33.6825 36.283 29.7935 36.5741 25.9166 36.5741C22.6787 36.5741 20.2743 35.6338 17.2926 34.5028C15.7004 33.8989 14.738 34.0321 13.0277 34.0321C11.4079 34.0321 10.0758 33.7789 8.45205 34.2863C7.50206 34.5832 5.80077 34.3269 5.26041 33.3542C4.61248 32.1879 5.90062 31.6822 5.90062 30.7275C5.90062 29.9259 5.79987 27.6336 6.07009 29.7954" stroke="#CEA9B6" stroke-opacity="0.37" stroke-width="1.28667" stroke-linecap="round" stroke-linejoin="round"/>
<path d="M25.3894 9.45932C25.3894 9.45932 26.0673 9.79826 26.7451 10.4761C27.423 10.9846 28.8499 10.7304 30.0498 10.7304C30.6811 10.7304 31.3478 10.2382 31.9139 9.9866C33.0607 9.47692 32.3767 10.4356 32.1022 10.9846C31.7983 11.5923 32.1453 12.7222 32.6953 13.1029C33.6028 13.7311 34.5005 13.1889 35.388 12.7452C35.7564 12.5609 35.6553 12.4755 35.7693 12.7263C35.9239 13.0665 35.8964 13.5602 35.8964 13.9314C35.8964 14.7763 35.8409 16.1799 35.388 16.9159C34.7922 17.8841 34.1901 18.5108 33.232 19.2226C32.2855 19.9257 31.0349 21.1526 29.7767 21.1526C27.3181 21.1526 24.7085 20.6168 23.4782 18.2246C22.9567 17.2106 22 16.3803 22 15.2212C22 14.2541 21.68 13.0953 22 12.1708C22.3879 11.0502 23.3558 9.98661 23.0169 9.98661C23.1897 10.036 24.7115 9.12039 25.3894 9.45932Z" stroke="#CEA9B6" stroke-opacity="0.37" stroke-width="1.28667" stroke-linecap="round" stroke-linejoin="round"/>
<path d="M28.1855 8.86618C29.1389 8.51329 31.3165 7.77397 31.8291 6.62073C32.2252 5.72947 30.9159 5.56156 30.2191 5.56156C29.3741 5.56156 28.3727 6.72947 28.1479 7.46807C28.0229 7.8788 27.9041 8.29916 27.7807 8.71554C27.7212 8.91625 27.8006 9.06177 27.8419 9.24748C27.8733 9.38893 29.1662 8.71011 29.1176 8.51568" stroke="#CEA9B6" stroke-opacity="0.37" stroke-width="1.28667" stroke-linecap="round" stroke-linejoin="round"/>
<path d="M44.9639 27.9349L7.78832 28.7514C3.81918 28.8386 0.647035 32.0812 0.647035 36.0513C0.647035 40.0838 3.91609 43.3529 7.94866 43.3529H45.1331C49.3912 43.3529 52.8431 39.901 52.8431 35.643C52.8431 31.3186 49.2872 27.84 44.9639 27.9349Z" fill="#CEA9B6" fill-opacity="0.37" stroke="#CEA9B6" stroke-opacity="0.37" stroke-width="1.28667"/>
<path d="M16.0071 28.5467C16.57 29.4194 17.0559 30.4667 17.7017 31.274C18.0265 31.68 17.9744 31.5975 18.6041 31.3642C19.6553 30.9749 20.8463 31.2539 21.9431 31.2539C22.9059 31.2539 24.0254 30.7513 24.9612 31.0033C26.0453 31.2951 27.3233 30.7379 28.3904 30.7125C29.6761 30.6819 30.9018 30.8027 32.1805 30.8027C32.9515 30.8027 33.703 30.3515 34.4166 30.3515C34.8305 30.3515 36.0105 30.6796 36.0409 29.9204C36.0557 29.5505 36.2214 29.1912 36.2214 28.8174C36.2214 28.3118 35.9188 28.5307 35.4092 28.2759" stroke="#CEA9B6" stroke-opacity="0.37" stroke-width="1.28667" stroke-linecap="round" stroke-linejoin="round"/>
</svg>
