<svg width="69" height="86" viewBox="0 0 69 86" fill="none" xmlns="http://www.w3.org/2000/svg">
<path d="M12.1882 62.9116C18.0772 56.7499 18.3875 54.6267 19.4008 47.1244C19.9588 42.9931 20.8013 39.0352 20.8304 34.8333C20.8824 27.3191 22.8014 17.6897 29.9646 13.5235C44.0597 5.32561 60.6239 26.6689 50.5979 39.1478C46.7821 43.8972 41.5946 46.7886 37.2654 51.0754C35.5292 52.7945 34.2746 54.8241 32.2147 56.3148C30.2393 57.7444 27.7847 59.5247 27.1854 61.7902C26.6792 63.7038 26.5933 66.336 24.7924 67.6698C22.3045 69.5122 23.2871 68.4862 20.5191 67.7539C18.6163 67.2506 16.2104 64.9959 15.0007 63.3624C14.1369 62.1961 12.8788 64.5757 13.5246 62.1343C14.079 60.0386 14.2924 61.9604 12.9132 61.5956" stroke="#83ABA3" stroke-width="1.66333" stroke-linecap="round" stroke-linejoin="round"/>
<path d="M19.2248 71.9348C15.7545 69.815 5.9899 64.548 7.58259 68.2897C9.50422 72.8041 11.246 71.2571 14.6092 72.9964C16.3291 73.8858 16.6187 79.997 14.5636 79.5808C11.6285 78.9862 10.7406 74.5907 7.79704 73.812C5.11791 73.1033 4.37709 76.6799 5.65307 78.3544C7.33805 80.5657 10.2468 79.4374 10.9948 82.3851C12.1767 87.0433 6.18831 84.7522 4.69147 83.3353C3.18343 81.9078 1.90384 79.9633 0.835319 78.7553" stroke="#83ABA3" stroke-width="1.66333" stroke-linecap="round" stroke-linejoin="round"/>
<path d="M12.4911 61.7667C12.4579 62.0861 11.9599 64.1705 12.7869 64.3892C13.2321 64.507 13.5084 64.2912 13.8554 64.6248C14.2635 65.0171 14.5467 65.7614 14.9074 66.2485C15.2253 66.6778 16.4327 66.9545 16.5561 67.4176C16.7578 68.1742 17.4251 68.7355 18.1157 69.0028C19.0112 69.3494 19.2299 69.9028 20.2696 69.9443C20.5874 69.957 20.6687 69.7724 20.9498 69.8468C21.3839 69.9616 21.5164 70.2188 21.9405 69.9413C22.4098 69.6342 23.0525 69.6022 23.3891 69.0367C23.8468 68.2677 24.8339 68.0605 23.4074 68.2353" stroke="#83ABA3" stroke-width="1.66333" stroke-linecap="round" stroke-linejoin="round"/>
<path d="M38.7147 31.3868C37.1367 30.9785 35.8074 30.7355 34.8283 32.2644C34.1621 33.3046 33.8602 34.4202 33.5479 35.6008C33.2442 36.7486 33.7047 37.8578 33.4189 38.9382C33.0411 40.3664 31.9608 39.8304 30.8791 40.0097C29.8572 40.179 29.1048 40.3473 28.3667 41.1355C27.6358 41.9161 27.5405 43.7742 27.3447 44.7811C27.1763 45.6476 27.1025 47.5644 26.3232 48.1284C25.8997 48.4349 23.9912 48.5762 25.3622 48.0208" stroke="#83ABA3" stroke-width="1.66333" stroke-linecap="round" stroke-linejoin="round"/>
<path d="M47.7967 50.8457C48.8367 52.0178 49.9369 53.0604 51.2075 53.9625C51.7403 54.3407 52.4143 54.9425 52.527 53.9817" stroke="#83ABA3" stroke-width="1.66333" stroke-linecap="round" stroke-linejoin="round"/>
<path d="M55.5913 39.9033C57.685 41.0331 59.7455 42.2274 61.8044 43.4106C62.1468 43.6074 61.5472 42.4514 61.5233 42.4148" stroke="#83ABA3" stroke-width="1.66333" stroke-linecap="round" stroke-linejoin="round"/>
<path d="M59.2599 28.529C61.6646 28.805 64.0839 28.9981 66.4962 29.1973C67.6068 29.289 68.019 29.5468 67.6574 28.4888" stroke="#83ABA3" stroke-width="1.66333" stroke-linecap="round" stroke-linejoin="round"/>
<path d="M49.9921 12.9789C51.9067 13.1413 53.5746 13.251 55.4468 12.8617C56.3232 12.6794 57.1914 12.4114 58.0839 12.3133C59.1444 12.1967 59.1342 12.3149 58.2339 11.3897" stroke="#83ABA3" stroke-width="1.66333" stroke-linecap="round" stroke-linejoin="round"/>
<path d="M36.148 0.835551C35.3865 2.63413 35.1786 3.77702 35.4867 5.67074C35.6528 6.69163 35.6923 7.9369 35.6332 8.97627C35.6128 9.33421 35.6004 9.53773 35.7624 9.85333C35.823 9.97147 35.808 8.75379 35.7996 8.56483" stroke="#83ABA3" stroke-width="1.66333" stroke-linecap="round" stroke-linejoin="round"/>
<path d="M20.6928 4.75709C20.7625 6.85834 21.1019 8.94604 21.0861 11.0282C21.0781 12.0817 20.9041 12.0998 20.7404 10.9892" stroke="#83ABA3" stroke-width="1.66333" stroke-linecap="round" stroke-linejoin="round"/>
<path d="M11.3519 17.2693C12.8947 19.5305 13.967 22.1143 14.9586 24.6523C15.0829 24.9704 15.283 25.1247 15.442 25.3979C15.803 26.0187 15.2489 24.6856 15.1866 24.5032" stroke="#83ABA3" stroke-width="1.66333" stroke-linecap="round" stroke-linejoin="round"/>
</svg>
