<svg width="16" height="13" viewBox="0 0 16 13" fill="none" xmlns="http://www.w3.org/2000/svg">
<path d="M4.15862 0.719021C4.15862 0.719021 4.83323 1.05633 5.50784 1.73093C6.18245 2.23694 7.60248 1.98397 8.79655 1.98397C9.42484 1.98397 10.0884 1.49416 10.6517 1.24377C11.793 0.736542 11.1123 1.69058 10.8391 2.23694C10.5367 2.84174 10.8821 3.96616 11.4294 4.34509C12.3324 4.97028 13.2259 4.43066 14.1091 3.98905C14.4758 3.80572 14.3751 3.72067 14.4886 3.97031C14.6424 4.30886 14.615 4.80014 14.615 5.16961C14.615 6.01038 14.5598 7.40726 14.1091 8.13971C13.5161 9.10329 12.917 9.72697 11.9635 10.4353C11.0215 11.1351 9.77694 12.3561 8.52483 12.3561C6.07804 12.3561 3.48097 11.8229 2.2566 9.44213C1.73761 8.43298 0.78558 7.60673 0.78558 6.4532C0.78558 5.49075 0.467122 4.33745 0.785581 3.41746C1.17161 2.30228 2.1348 1.24377 1.7975 1.24377C1.96948 1.29291 3.48401 0.38172 4.15862 0.719021Z" stroke="#CEA9B6" stroke-opacity="0.37" stroke-width="1.28667" stroke-linecap="round" stroke-linejoin="round"/>
</svg>
